PathFileType	4	(X/Y/Z)	C:\Users\WrightLab\Desktop\Jo\P3_3.trc
DataRate	CameraRate	NumFrames	NumMarkers	Units	OrigDataRate	OrigDataStartFrame	OrigNumFrames
100.00	100.00	       57	19	mm	100.00	547	       729
Frame#	Time	Headset_Front			Headset_Back			Headset_Left			Headset_Right			Left_Shoulder			Right_Shoulder			Sternum			C7			Left Elbow			Right Elbow			Left Wrist			Right Wrist			Left ASIS			Right ASIS			S2			Left Knee			Right Knee			Left Ankle			Right Ankle			
		X1	Y1	Z1	X2	Y2	Z2	X3	Y3	Z3	X4	Y4	Z4	X5	Y5	Z5	X6	Y6	Z6	X7	Y7	Z7	X8	Y8	Z8	X9	Y9	Z9	X10	Y10	Z10	X11	Y11	Z11	X12	Y12	Z12	X13	Y13	Z13	X14	Y14	Z14	X15	Y15	Z15	X16	Y16	Z16	X17	Y17	Z17	X18	Y18	Z18	X19	Y19	Z19	

547	5.460																												-279.88992	958.04321	-1263.72437				-125.55716	797.91162	-1332.59888							-455.58542	894.94409	-1447.25037										-251.86713	65.40727	-1489.49402	
548	5.470																												-279.24200	958.41199	-1267.16443				-124.56815	797.78015	-1334.31482							-455.87192	895.02026	-1448.69458										-251.87808	65.35436	-1489.54919	
549	5.480																												-277.41980	957.99927	-1271.16492				-123.60386	799.04205	-1338.39087							-454.74744	895.01398	-1459.04578										-251.90788	65.24116	-1489.70544	
550	5.490																												-277.57761	958.47211	-1273.78711				-123.26524	799.03168	-1340.19629							-454.62640	894.22375	-1467.86865										-251.93216	65.19127	-1489.84167	
551	5.500																												-276.92670	958.23438	-1277.36218				-122.99455	800.18164	-1343.75183							-455.22610	894.25116	-1475.32520										-251.94507	65.19570	-1489.92065	
552	5.510																												-276.26556	959.84204	-1282.72107				-122.66897	800.51111	-1345.74878							-455.77484	894.51331	-1478.94751										-252.74327	66.11288	-1487.49524	
553	5.520																												-277.11795	961.14807	-1286.37488				-122.98577	801.43439	-1348.38342							-455.60828	895.76263	-1483.90051										-252.79967	66.01286	-1487.81470	
554	5.530																												-277.62994	961.97028	-1290.16418				-123.28344	801.85419	-1349.99316							-455.32379	897.65894	-1487.11523										-252.75557	66.66279	-1488.67395	
555	5.540																												-278.93744	962.14313	-1291.77100				-123.12811	803.14606	-1352.46106							-454.54572	898.36182	-1495.20984										-253.60701	67.82024	-1485.97986	
556	5.550																												-279.86826	960.45703	-1307.01611				-124.27026	804.08032	-1355.35693							-454.29694	898.78674	-1501.10864										-253.55473	68.12917	-1487.35852	
557	5.560																												-281.39038	962.51160	-1303.27600				-124.56580	804.19495	-1356.83435							-453.92227	897.73651	-1511.23987										-253.64549	67.92661	-1487.86340	
558	5.570																												-282.63916	963.77765	-1304.35706				-125.75475	805.60956	-1360.16003							-455.15585	900.10553	-1512.58960										-253.81070	67.52414	-1488.77515	
559	5.580																												-284.72971	964.40173	-1311.33545				-127.15224	805.84521	-1361.52612							-454.81415	901.38202	-1519.76807										-254.56746	67.92699	-1486.82605	
560	5.590																												-286.23856	964.46802	-1316.18616				-128.22412	806.47675	-1363.69861							-454.37531	901.33704	-1524.28833										-254.74162	67.54546	-1487.79553	
561	5.600																												-287.11200	965.19873	-1317.64233				-129.51988	807.34753	-1366.20349							-453.51816	901.08655	-1531.73572										-255.06314	66.87054	-1489.59204	
562	5.610																												-289.89926	965.77252	-1320.61194				-131.47171	807.19934	-1367.04041							-452.93015	902.12280	-1536.10278										-255.90457	67.16085	-1489.89941	
563	5.620																												-292.87225	965.77698	-1324.87744				-133.67337	807.62262	-1368.68347							-451.95941	902.62433	-1543.62231										-256.75687	67.47315	-1490.66113	
564	5.630																												-294.18997	967.03955	-1323.72766				-135.43343	807.64832	-1369.75183							-452.41830	905.22339	-1544.72998										-257.16058	67.41125	-1492.44702	
565	5.640																												-298.58963	966.56213	-1329.36023				-137.57961	807.96222	-1371.45032							-452.32162	905.75183	-1549.43042										-257.68243	66.75280	-1492.72241	
566	5.650																												-300.61029	967.86804	-1331.10059				-139.73085	808.18909	-1373.47302							-451.98581	904.90009	-1558.79456										-257.88647	66.34824	-1493.86560	
567	5.660																												-303.02899	966.50818	-1334.73621				-142.48810	808.13330	-1374.58337							-452.00543	904.63892	-1566.34302										-258.66583	66.77386	-1492.20532	
568	5.670																												-307.98517	967.32281	-1336.87170				-144.99086	808.34845	-1376.53552							-450.99744	904.69250	-1575.33374										-258.72351	66.77279	-1492.55286	
569	5.680																												-308.83359	966.29681	-1341.31030				-148.47821	808.08704	-1377.64258							-450.83206	904.74927	-1579.20862										-259.58798	67.69069	-1490.71375	
570	5.690																												-314.88599	966.74695	-1344.45532				-151.26321	808.11871	-1379.52405							-450.79855	907.52167	-1579.21606										-260.37695	68.70052	-1488.26709	
571	5.700																												-316.37161	965.57159	-1347.84009				-154.48346	808.00610	-1381.31445							-449.63376	907.29041	-1586.08740										-260.52884	68.47535	-1489.13184	
572	5.710																												-322.36652	966.05200	-1350.62781				-158.11661	807.95343	-1382.96594							-448.77188	906.42944	-1591.73462										-260.64853	68.31189	-1489.81628	
573	5.720																												-325.63763	966.40698	-1354.43774				-162.16331	806.90161	-1383.07178							-448.62863	906.36621	-1598.21411										-260.71722	68.21787	-1490.20886	
574	5.730																												-329.68182	966.29602	-1358.00720				-165.19749	807.02332	-1385.38940							-448.77859	905.91718	-1608.97107										-260.73944	68.24910	-1490.34924	
575	5.740																												-335.31693	965.17017	-1366.80835				-170.82800	803.64740	-1394.45239							-448.11383	906.89056	-1613.43884										-260.79901	68.19436	-1490.69531	
576	5.750																												-338.76572	966.05597	-1363.44360				-175.05205	803.57709	-1393.81506							-446.94043	906.14203	-1620.01367										-261.58286	70.17090	-1488.66711	
577	5.760																												-343.98059	964.73059	-1372.34839				-179.95052	802.58429	-1397.72412							-446.47452	905.49042	-1626.05627										-262.02884	71.34364	-1487.52490	
578	5.770																												-350.23914	964.03711	-1378.48279				-184.17183	802.16278	-1397.11230							-445.79324	905.26575	-1633.12878										-262.61591	71.59980	-1485.90674	
579	5.780																												-354.01364	965.16431	-1377.65295				-190.10388	801.98761	-1398.11072							-444.81293	904.58875	-1639.65466										-262.83234	71.26590	-1487.13281	
580	5.790																												-358.95358	964.07318	-1385.62097				-194.66559	800.47723	-1401.11951							-443.62698	906.05164	-1649.83240										-263.07156	70.88155	-1488.48450	
581	5.800																												-365.09491	963.42834	-1394.24084				-200.10072	799.89929	-1402.09070							-442.53284	906.13190	-1657.61829										-263.23825	70.75139	-1489.45508	
582	5.810																												-370.42059	962.59698	-1402.85107				-206.75116	799.74402	-1401.54553							-441.52859	905.95648	-1664.98840										-263.99069	71.47026	-1488.87402	
583	5.820																												-376.09335	964.30835	-1401.55042				-211.82072	798.58466	-1405.71472							-440.51804	905.58026	-1672.13672										-265.11734	73.15038	-1486.37024	
584	5.830																												-380.75076	964.52686	-1409.26477				-217.92220	799.43988	-1404.22620							-439.44861	905.19727	-1679.08752										-266.43994	75.07545	-1482.83459	
585	5.840																												-387.96521	964.46021	-1413.51428				-224.63176	799.34430	-1406.17712							-438.33481	905.28735	-1686.62170										-267.24533	74.91473	-1484.64966	
586	5.850																												-394.66223	963.32556	-1421.45740				-231.50842	799.23480	-1409.06970							-437.29886	906.85919	-1696.33484										-267.42780	74.63609	-1485.67859	
587	5.860																												-400.16144	962.22101	-1434.35657				-237.96298	799.42218	-1409.50684							-436.21326	906.85553	-1702.94971										-267.71982	74.07282	-1487.30078	
588	5.870																												-406.84912	961.59546	-1441.97595				-244.45695	799.61487	-1410.15503							-435.17307	906.80109	-1709.19238										-267.79932	74.44010	-1490.12817	
589	5.880																												-412.64124	962.69391	-1447.63477				-251.55618	799.44019	-1414.22046							-434.28351	907.35052	-1716.10107										-268.65552	74.97237	-1490.34692	
590	5.890																												-418.32944	963.63513	-1452.22131				-260.56824	799.83820	-1410.88391							-433.63953	908.00311	-1722.98010										-269.28671	79.39933	-1483.21667	
591	5.900																												-423.56650	964.29199	-1458.06580				-267.87378	799.15741	-1413.65283							-433.05533	908.16949	-1728.74414										-269.60666	76.09188	-1493.52637	
592	5.910																												-429.84894	964.39191	-1465.43396				-275.02487	798.67181	-1417.82593							-432.62125	908.72418	-1735.07690										-271.34192	78.62258	-1484.89209	
593	5.920																																		-282.64474	799.02087	-1420.00830							-432.13834	909.46112	-1741.68152										-272.35638	78.69865	-1489.36243	
594	5.930																																		-290.64679	800.16522	-1420.60400							-431.67725	910.48413	-1748.85901										-273.70892	79.81996	-1489.20593	
595	5.940																																		-298.96582	799.29413	-1421.58069							-430.94989	910.63599	-1754.57056										-275.61053	80.63542	-1486.85254	
596	5.950																																		-306.85788	799.53741	-1422.91479																			-278.30035	80.57621	-1493.05884	
597	5.960																																		-313.86050	799.17023	-1426.05115																			-281.01468	82.51455	-1489.16650	
598	5.970																																		-320.99042	798.56738	-1429.79993																			-286.58725	83.91037	-1491.03711	
599	5.980																																																							-290.00275	83.07153	-1492.01819	
600	5.990																																																							-295.96933	84.56509	-1495.39453	
601	6.000																																																							-303.10419	84.97405	-1497.74561	
602	6.010																																																							-309.40103	85.04397	-1500.77686	
603	6.020																																																							-316.85257	84.91138	-1505.55103	
